<svg id="Layer_1" data-name="Layer 1" xmlns="http://www.w3.org/2000/svg" viewBox="0 0 96 96"><path d="M70.18,66.86a1,1,0,0,1-1-1v-8.5a1,1,0,0,1,2,0v8.5A1,1,0,0,1,70.18,66.86Z"/><path d="M70.18,37.44a1,1,0,0,1-1-1V8.67A4.67,4.67,0,0,0,64.52,4H25.22a4.67,4.67,0,0,0-4.66,4.67V32.46a1,1,0,0,1-2,0V8.67A6.67,6.67,0,0,1,25.22,2h39.3a6.67,6.67,0,0,1,6.66,6.67V36.44A1,1,0,0,1,70.18,37.44Z"/><path d="M64.52,94H25.22a6.67,6.67,0,0,1-6.66-6.67V51.16a1,1,0,1,1,2,0V87.33A4.67,4.67,0,0,0,25.22,92h39.3a4.67,4.67,0,0,0,4.66-4.67v-12a1,1,0,0,1,2,0v12A6.67,6.67,0,0,1,64.52,94Z"/><path d="M53.3,8.29H36.43A3.68,3.68,0,0,1,33,5.93l-1-2.58a1,1,0,0,1,.12-.92A1,1,0,0,1,33,2H56.75a1,1,0,0,1,.82.43,1,1,0,0,1,.11.92l-1,2.58A3.66,3.66,0,0,1,53.3,8.29ZM34.43,4l.47,1.23a1.65,1.65,0,0,0,1.53,1.06H53.3a1.66,1.66,0,0,0,1.54-1.06L55.3,4Z"/><path d="M55.67,90.28H34.07a1,1,0,1,1,0-2h21.6a1,1,0,0,1,0,2Z"/><path d="M19.17,52.16a4.54,4.54,0,0,1-4.54-4.54V36.7a4.5,4.5,0,0,1,2.51-4.05,12.16,12.16,0,0,0,5.68-4.82,30.84,30.84,0,0,0,2.24-5.51,1,1,0,0,1,1.23-.68,5.81,5.81,0,0,1,4.2,5.54,5.38,5.38,0,0,1-.25,1.66,22,22,0,0,1-1.9,4.55h7a3.3,3.3,0,0,1,2.22,5.73A3,3,0,0,1,38.19,41a3,3,0,0,1-1.36,2.52,3,3,0,0,1-1.34,4.29,3,3,0,0,1-2.73,4.34ZM26.64,24a30.08,30.08,0,0,1-2.08,4.86A14.15,14.15,0,0,1,18,34.44a2.51,2.51,0,0,0-1.41,2.26V47.62a2.54,2.54,0,0,0,2.54,2.54H32.76a1,1,0,1,0,0-2.06,1,1,0,1,1,0-2h1.46a1,1,0,0,0,0-2.06,1,1,0,0,1,0-2h.94a1,1,0,0,0,0-2.06,1,1,0,0,1,0-2h.14a1.3,1.3,0,0,0,0-2.59H26.52a1,1,0,0,1-.89-.54,1,1,0,0,1,.07-1,18.53,18.53,0,0,0,2.63-5.55,3.53,3.53,0,0,0,.16-1.08A3.78,3.78,0,0,0,26.64,24Z"/><path d="M13.84,52.16H10a2.79,2.79,0,0,1-2.79-2.79V34.82A2.79,2.79,0,0,1,10,32h3.84a2.79,2.79,0,0,1,2.79,2.79V49.37A2.79,2.79,0,0,1,13.84,52.16ZM10,34a.79.79,0,0,0-.79.79V49.37a.79.79,0,0,0,.79.79h3.84a.79.79,0,0,0,.79-.79V34.82a.79.79,0,0,0-.79-.79Z"/><path d="M65.64,80.89a1,1,0,0,1-.71-.3l-6.45-6.44a5.56,5.56,0,0,1,7.16-8.46,5.56,5.56,0,0,1,7.15,8.46h0l-6.45,6.44A1,1,0,0,1,65.64,80.89ZM62.41,66.66a3.56,3.56,0,0,0-2.51,6.08l5.74,5.73,5.73-5.73a3.56,3.56,0,0,0-5-5,1,1,0,0,1-1.41,0A3.57,3.57,0,0,0,62.41,66.66Zm9.67,6.78h0Z"/><path d="M74.09,62.28a1,1,0,0,1-.7-.3L62,50.64a9,9,0,0,1,12.05-13.4,9,9,0,0,1,12,13.4L74.8,62A1,1,0,0,1,74.09,62.28Zm-5.67-25a7,7,0,0,0-5,12L74.09,59.86,84.73,49.23a7,7,0,0,0-9.93-9.94,1,1,0,0,1-1.41,0A7,7,0,0,0,68.42,37.24Z"/></svg>